<svg height="512" viewBox="0 0 56 56" width="512" xmlns="http://www.w3.org/2000/svg"><g id="020---Cutting-Board" transform="translate(-1)"><path id="Shape" d="m9.85 1.2c-1.38873623-1.41025568-3.6000446-1.59283057-5.20127195-.42943882-1.60122736 1.16339175-2.11086373 3.32290305-1.19872805 5.07943882.6554793 1.26085567 1.93070121 2.07928167 3.35 2.15.99053256.07932443 1.91830744.51655167 2.61 1.23l7.51 7.51 4.24-4.24zm1.41 5.66c-.3900375.38772359-1.0199625.38772359-1.41 0-.18931265-.1877666-.29579832-.44336246-.29579832-.71s.10648567-.5222334.29579832-.71c.3900375-.38772359 1.0199625-.38772359 1.41 0 .1893127.1877666.2957983.44336246.2957983.71s-.1064856.5222334-.2957983.71zm5 5c-.3900375.3877236-1.0199625.3877236-1.41 0-.1893127-.1877666-.2957983-.4433625-.2957983-.71s.1064856-.5222334.2957983-.71c.3900375-.3877236 1.0199625-.3877236 1.41 0 .348229.3980405.326318.9984028-.05 1.37z"/><path id="Shape" d="m22.58 13.93-7.08 7.07 14.85 14.85c9.24 9.24 16.08 5.79 18.32 4.17zm1.42 5.66c-.3900375.3877236-1.0199625.3877236-1.41 0l-.71-.71c-.3877236-.3900375-.3877236-1.0199625 0-1.41.3900375-.3877236 1.0199625-.3877236 1.41 0l.71.7c.1893127.1877666.2957983.4433625.2957983.71s-.1064856.5222334-.2957983.71zm14.13 14.14c-.3900375.3877236-1.0199625.3877236-1.41 0l-11.32-11.32c-.3877236-.3900375-.3877236-1.0199625 0-1.41.1877666-.1893127.4433625-.2957983.71-.2957983s.5222334.1064856.71.2957983l11.31 11.31c.1893127.1877666.2957983.4433625.2957983.71s-.1064856.5222334-.2957983.71z"/><path id="Shape" d="m3 51c6.69 0 6.49-.09 6.88.24.2944842.2414116.4263051.6291201.34 1l-.63 2.51c-.07890678.3049429-.00952489.6292404.1872456.8752035.19677048.2459631.4979281.38484.8127544.3747965h44.85c.3148263.0100435.6159839-.1288334.8127544-.3747965s.2661524-.5702606.1872456-.8752035l-4-16c-.116766-.4531999-.5322336-.7648006-1-.75h-2l1.39 1.39c.3877236.3900375.3877236 1.0199625 0 1.41l3 12c.0751846.3035358.0040503.6247663-.1922534.8681828-.1963036.2434165-.4951725.3809901-.8077466.3718172h-39.71c-.3125741.0091729-.611443-.1284007-.8077466-.3718172-.1963037-.2434165-.267438-.564647-.1922534-.8681828l3-12c.1128155-.4571833.5293028-.7737136 1-.76h15.93c-.77-.59-1.55-1.25-2.35-2h-15.14c-.4677664-.0148006-.883234.2968001-1 .75l-.37 1.49c-.1128155.4571833-.5293028.7737136-1 .76h-7.05c-.83877825.0174405-1.57751944.5565219-1.85 1.35l-2.14 5.68c-.26422644.636552-.20252446 1.3618197.16543542 1.9445886s.99624715.950295 1.68456458.9854114zm.43-3.35 1.5-4c.14646395-.3920069.52152747-.6513593.94-.65h5.38c.3125741-.0091729.611443.1284007.8077466.3718172.1963037.2434165.267438.564647.1922534.8681828l-1 4c-.1128155.4571833-.5293028.7737136-1 .76h-5.88c-.32834153.0010679-.63628748-.1591168-.8239096-.4285741s-.23101228-.6138511-.1160904-.9214259z"/><path id="Shape" d="m35.12 42h-18.22l-2.5 10h37.2l-2.48-9.92c-4.05 2.44-8.96 2.63-14-.08z"/><path id="Shape" d="m9.97 45h-3.41l-.75 2h3.66z"/></g></svg>